<?xml version="1.0"?>
<svg xmlns="http://www.w3.org/2000/svg" xmlns:xlink="http://www.w3.org/1999/xlink" version="1.1" id="Layer_1" x="0px" y="0px" viewBox="0 0 512 512" style="enable-background:new 0 0 512 512;" xml:space="preserve" width="512px" height="512px" class=""><g><path style="fill:#57555C;" d="M467.906,380.104c0,37.066-30.156,67.223-67.232,67.223H111.326  c-37.076,0-67.232-30.156-67.232-67.223c0-37.076,30.156-67.232,67.232-67.232h289.347  C437.75,312.872,467.906,343.028,467.906,380.104z" data-original="#57555C" class=""/><path style="fill:#424148;" d="M467.906,380.104c0,37.066-30.156,67.223-67.232,67.223H256V312.872h144.674  C437.75,312.872,467.906,343.028,467.906,380.104z" data-original="#424148" class=""/><g>
	<path style="fill:#FFFFFF;" d="M138.595,380.104c0,10.551-8.555,19.106-19.106,19.106c-10.561,0-19.116-8.555-19.116-19.106   c0-10.561,8.554-19.116,19.116-19.116C130.041,360.989,138.595,369.543,138.595,380.104z" data-original="#FFFFFF" class=""/>
	<circle style="fill:#FFFFFF;" cx="174.09" cy="380.1" r="19.11" data-original="#FFFFFF" class=""/>
	<circle style="fill:#FFFFFF;" cx="228.7" cy="380.1" r="19.11" data-original="#FFFFFF" class=""/>
	<circle style="fill:#FFFFFF;" cx="283.3" cy="380.1" r="19.11" data-original="#FFFFFF" class=""/>
	<circle style="fill:#FFFFFF;" cx="337.91" cy="380.1" r="19.11" data-original="#FFFFFF" class=""/>
	<circle style="fill:#FFFFFF;" cx="392.51" cy="380.1" r="19.11" data-original="#FFFFFF" class=""/>
</g><rect x="35.137" y="109.365" transform="matrix(-0.9056 -0.4242 0.4242 -0.9056 221.3353 297.3654)" style="fill:#57555C;" width="217.256" height="29.365" data-original="#57555C" class=""/><path style="fill:#0040BB" d="M411.626,199.941v42.038H221.743v-42.038c0-32.917,26.779-59.706,59.706-59.706h70.472  C384.847,140.235,411.626,167.024,411.626,199.941z" data-original="#00BB64" class="" data-old_color="#00BB64"/><polygon style="fill:#004080" points="440.53,212.616 440.53,265.891 99.513,265.891 142.863,212.616 " data-original="#008040" class="" data-old_color="#008040"/><rect x="301.35" y="110.61" style="fill:#57555C;" width="29.363" height="30.489" data-original="#57555C" class=""/><path style="fill:#00408C" d="M411.626,241.979h-95.597V140.235h35.892c32.926,0,59.706,26.789,59.706,59.706L411.626,241.979  L411.626,241.979z" data-original="#008C48" class="" data-old_color="#008C48"/><rect x="316.03" y="110.61" style="fill:#424148;" width="14.682" height="30.489" data-original="#424148" class=""/><rect x="316.03" y="212.62" style="fill:#004075" width="124.5" height="53.27" data-original="#00753C" class="" data-old_color="#00753C"/><path style="fill:#57555C;" d="M512,330.333h-29.363c0-20.877-16.982-37.869-37.869-37.869H67.232  c-20.887,0-37.869,16.992-37.869,37.869H0c0-37.076,30.156-67.232,67.232-67.232h377.535c13.801,0,26.643,4.18,37.331,11.344  C500.117,286.513,512,307.058,512,330.333z" data-original="#57555C" class=""/><path style="fill:#424148;" d="M512,330.333h-29.363c0-20.877-16.982-37.869-37.869-37.869H316.029v-29.363h128.739  c13.801,0,26.643,4.18,37.331,11.344C500.117,286.513,512,307.058,512,330.333z" data-original="#424148" class=""/><g>
	<path style="fill:#E1E1E4;" d="M138.595,380.104c0,10.551-8.555,19.106-19.106,19.106v-38.221   C130.041,360.989,138.595,369.543,138.595,380.104z" data-original="#E1E1E4" class="active-path"/>
	<path style="fill:#E1E1E4;" d="M193.197,380.104c0,10.551-8.554,19.106-19.106,19.106v-38.221   C184.643,360.989,193.197,369.543,193.197,380.104z" data-original="#E1E1E4" class="active-path"/>
	<path style="fill:#E1E1E4;" d="M247.799,380.104c0,10.551-8.555,19.106-19.106,19.106v-38.221   C239.245,360.989,247.799,369.543,247.799,380.104z" data-original="#E1E1E4" class="active-path"/>
	<path style="fill:#E1E1E4;" d="M302.401,380.104c0,10.551-8.555,19.106-19.106,19.106v-38.221   C293.847,360.989,302.401,369.543,302.401,380.104z" data-original="#E1E1E4" class="active-path"/>
	<path style="fill:#E1E1E4;" d="M357.003,380.104c0,10.551-8.555,19.106-19.106,19.106v-38.221   C348.449,360.989,357.003,369.543,357.003,380.104z" data-original="#E1E1E4" class="active-path"/>
	<path style="fill:#E1E1E4;" d="M411.605,380.104c0,10.551-8.555,19.106-19.106,19.106v-38.221   C403.051,360.989,411.605,369.543,411.605,380.104z" data-original="#E1E1E4" class="active-path"/>
</g></g> </svg>
